<?xml version="1.0" standalone="no"?>
<!DOCTYPE svg PUBLIC "-//W3C//DTD SVG 20010904//EN"
 "http://www.w3.org/TR/2001/REC-SVG-20010904/DTD/svg10.dtd">
<svg version="1.0" xmlns="http://www.w3.org/2000/svg"
 width="640.000000pt" height="640.000000pt" viewBox="0 0 640.000000 640.000000"
 preserveAspectRatio="xMidYMid meet">

<g transform="translate(0.000000,640.000000) scale(0.100000,-0.100000)"
fill="#D3D3D3" stroke="none">
<path d="M0 3200 l0 -3200 3200 0 3200 0 0 3200 0 3200 -3200 0 -3200 0 0
-3200z m3410 2333 c0 -15 -90 -89 -180 -148 -179 -117 -360 -221 -360 -207 0
5 21 28 48 52 81 72 102 93 98 98 -6 5 -160 -85 -241 -141 -99 -68 -309 -281
-411 -417 -85 -113 -203 -314 -191 -326 3 -3 20 14 38 37 115 142 251 288 345
370 60 51 111 96 114 99 17 19 218 155 261 176 51 26 81 25 44 -2 -11 -8 -31
-22 -45 -31 -53 -38 -160 -135 -189 -170 -121 -150 -146 -182 -166 -213 -23
-37 -38 -80 -27 -80 4 0 32 23 62 51 140 130 355 300 477 377 92 59 341 154
438 167 28 4 73 13 100 21 28 7 95 18 150 24 55 5 134 14 175 19 41 6 161 10
267 11 156 0 232 6 413 30 122 17 225 28 228 25 27 -27 -243 -89 -503 -115
-286 -29 -320 -36 -442 -80 -29 -11 -53 -16 -53 -12 0 19 53 56 112 77 50 19
57 24 34 24 -56 1 -177 -40 -244 -84 -128 -82 -224 -166 -209 -181 2 -2 26 5
53 17 187 80 487 165 649 184 33 4 76 11 95 16 19 4 64 13 100 18 71 11 174
28 375 65 72 13 189 34 260 47 143 24 184 39 264 93 91 62 79 34 -25 -56 -312
-270 -284 -250 -499 -357 -110 -55 -265 -139 -345 -187 -182 -109 -270 -157
-270 -146 0 10 63 70 120 112 25 19 65 52 90 75 25 22 56 48 69 58 49 33 12
26 -56 -11 -163 -90 -303 -212 -388 -337 -29 -44 -50 -81 -46 -83 5 -1 28 4
52 12 24 8 45 13 48 11 6 -7 3 -9 -74 -48 -80 -41 -195 -129 -177 -135 7 -2
23 3 35 10 32 21 116 48 149 48 16 0 37 4 46 9 26 14 152 25 152 13 0 -5 -16
-13 -35 -16 -20 -4 -33 -11 -30 -15 2 -5 -16 -11 -41 -14 -25 -2 -53 -12 -62
-21 -14 -14 -14 -16 -1 -16 8 0 20 5 26 11 17 17 173 23 249 10 122 -22 126
-23 117 -32 -5 -5 -34 -5 -68 1 -84 14 -155 12 -272 -5 -91 -14 -155 -34 -167
-54 -3 -4 37 -7 88 -8 59 0 101 -6 117 -14 22 -13 10 -15 -116 -20 -121 -5
-154 -10 -240 -38 -55 -18 -106 -39 -114 -46 -11 -11 -6 -14 35 -19 99 -13
454 -140 454 -163 0 -16 -7 -16 -110 2 -79 15 -248 13 -274 -2 -4 -3 34 -20
85 -37 119 -39 352 -176 301 -176 -5 0 -31 7 -58 15 -45 13 -193 35 -237 35
-14 0 -5 -15 37 -58 55 -55 206 -291 206 -320 0 -8 -55 42 -122 111 -68 68
-149 143 -180 166 -80 58 -158 102 -158 91 0 -6 25 -43 55 -83 52 -68 175
-295 175 -323 0 -23 -26 -5 -43 29 -8 18 -53 81 -99 142 -83 108 -203 223
-316 302 -54 38 -75 41 -43 6 53 -57 152 -187 192 -253 72 -117 201 -349 206
-370 10 -38 -24 -21 -83 42 l-58 63 -9 -31 -9 -32 -81 107 c-44 58 -83 108
-87 111 -3 3 -20 25 -38 49 -124 172 140 -332 310 -591 41 -62 87 -135 103
-163 69 -121 193 -288 172 -232 -10 26 5 21 70 -22 35 -24 84 -71 121 -118 34
-43 85 -105 112 -138 52 -62 130 -171 130 -182 0 -3 7 -11 16 -17 12 -10 2
-18 -61 -50 -77 -40 -88 -43 -116 -32 -15 7 -16 -4 -11 -102 3 -66 1 -112 -5
-115 -5 -4 -26 -2 -45 4 l-36 9 -7 118 c-7 114 -8 119 -46 178 -21 33 -39 71
-39 85 0 17 -18 42 -56 79 -84 83 -140 163 -164 234 -11 35 -20 69 -18 76 2 7
-17 28 -42 47 -66 51 -235 219 -373 373 -67 74 -124 137 -128 140 -10 9 -163
184 -190 219 -15 18 -32 32 -38 30 -31 -11 179 -291 392 -527 141 -154 175
-202 148 -202 -14 0 -341 292 -426 381 -135 141 -290 317 -330 374 -20 29 -28
13 -10 -21 8 -16 15 -36 15 -45 0 -47 131 -273 239 -414 86 -112 259 -282 303
-298 7 -2 10 -7 6 -11 -3 -4 -17 -2 -30 4 -12 6 0 -9 27 -34 28 -25 44 -45 37
-46 -21 0 -181 90 -257 145 -38 28 -101 73 -139 100 -37 28 -130 101 -205 162
-132 110 -151 123 -151 104 0 -17 316 -326 389 -381 77 -58 84 -62 205 -124
121 -63 163 -112 48 -56 -34 17 -66 30 -70 30 -14 0 -168 97 -242 152 -67 50
-121 103 -319 312 -62 64 -96 86 -137 86 -34 0 -107 -41 -157 -89 -37 -35 -41
-36 -135 -43 -53 -4 -119 -12 -147 -17 -57 -10 -68 -6 -135 49 -93 77 -138 81
-205 19 -43 -40 -46 -41 -64 -25 -10 9 -47 21 -82 27 -35 6 -65 12 -68 14 -8
9 -60 -29 -69 -50 -6 -12 -14 -43 -17 -69 -8 -49 -25 -63 -25 -20 0 56 23 106
67 142 24 20 43 40 43 44 0 4 -13 8 -30 8 -54 0 -121 -24 -161 -59 -55 -46
-59 -33 -7 23 45 49 84 65 161 66 94 0 -5 52 -102 53 -59 1 -75 -4 -126 -33
-57 -33 -58 -33 -39 -8 43 59 206 128 300 128 32 0 44 4 44 15 0 12 -13 15
-59 15 -53 0 -63 4 -108 40 -67 53 -231 260 -206 260 5 0 59 -52 120 -115 62
-63 117 -115 123 -115 17 0 -14 51 -55 90 -100 94 -304 411 -339 527 -15 48
16 29 67 -40 57 -76 112 -126 181 -163 90 -48 34 -62 -60 -14 -32 16 -60 28
-61 26 -7 -7 110 -101 155 -126 82 -45 253 -87 252 -62 0 4 -22 33 -49 65 -51
61 -117 184 -150 277 -46 132 -65 322 -37 365 9 14 16 47 17 77 1 88 31 212
81 328 26 61 65 117 75 107 3 -4 -1 -15 -9 -24 -8 -10 -24 -43 -35 -73 -51
-137 -55 -157 -55 -291 1 -122 2 -133 23 -155 18 -20 20 -24 6 -24 -9 0 -20 8
-26 17 -16 30 -23 -23 -12 -97 10 -75 47 -160 90 -210 36 -41 37 -36 17 81
-30 173 -19 389 25 504 10 28 19 56 19 63 0 40 84 191 162 294 44 58 111 189
133 261 23 76 35 81 35 15 0 -51 -43 -265 -60 -298 -4 -8 -11 -33 -15 -55 -4
-22 -13 -51 -20 -65 -7 -14 -34 -92 -61 -175 -27 -82 -54 -151 -59 -152 -14
-3 -7 116 11 192 22 96 15 118 -12 35 -38 -118 -57 -243 -58 -385 -1 -121 1
-135 24 -180 32 -63 57 -98 63 -88 3 5 8 42 12 83 8 84 49 269 71 317 8 17 14
36 14 43 0 28 97 237 138 298 12 18 22 35 22 39 0 12 67 92 139 166 74 77 148
137 281 229 118 81 198 144 225 176 28 33 55 42 55 18 0 -8 -20 -38 -45 -68
-50 -59 -52 -61 -121 -111 -27 -20 -58 -46 -69 -59 l-20 -23 -3 23 c-2 12 -6
22 -10 22 -23 -1 -141 -98 -204 -168 -69 -76 -128 -171 -128 -204 0 -7 26 14
58 47 63 66 276 253 341 299 22 16 61 41 85 55 25 14 88 52 142 85 123 74 283
149 354 164 31 7 112 41 180 76 132 67 140 70 140 59z m130 -125 c0 -14 -135
-124 -206 -170 -23 -14 -73 -38 -111 -51 -66 -24 -193 -94 -259 -144 -31 -23
-74 -31 -74 -13 0 5 17 18 38 29 20 10 71 53 112 94 62 61 87 79 135 96 118
39 258 106 309 146 34 27 56 32 56 13z m1560 -325 c-1 -54 -216 -261 -307
-295 -59 -22 -54 -6 10 35 71 45 203 164 252 226 22 28 41 51 42 51 2 0 3 -8
3 -17z m-44 -210 c-16 -32 -161 -174 -251 -248 -33 -27 -78 -66 -101 -87 l-41
-39 -79 3 -79 3 80 40 c161 82 285 167 379 261 50 50 94 91 99 92 4 1 1 -10
-7 -25z m319 -630 c16 -10 2 -11 -75 -6 -136 8 -275 -16 -410 -73 -118 -49
-226 -109 -277 -154 -18 -17 -36 -30 -38 -30 -11 0 -148 40 -152 44 -8 8 216
118 318 157 52 20 138 44 190 53 52 8 105 18 119 20 55 9 305 1 325 -11z
m-539 -362 c73 -24 178 -70 172 -76 -2 -3 -40 6 -84 20 -43 13 -110 29 -149
35 -105 17 -116 20 -110 30 10 17 109 11 171 -9z m180 -286 c180 -29 316 -73
382 -122 47 -35 34 -39 -29 -8 -98 48 -153 67 -239 81 -47 8 -112 20 -145 25
-64 11 -234 4 -297 -12 -22 -6 -38 -16 -38 -24 0 -20 -10 -19 -25 2 -8 11 -32
18 -74 21 -44 3 -61 8 -61 19 0 19 14 23 111 33 111 12 293 5 415 -15z m-441
-84 c128 -37 221 -77 270 -115 30 -23 11 -19 -45 9 -45 23 -87 35 -281 79 -87
20 -119 33 -119 47 0 15 89 6 175 -20z m-85 -278 c27 -21 109 -75 182 -120 74
-46 149 -99 168 -119 l35 -35 -98 50 c-53 28 -108 51 -121 51 -13 0 -37 7 -52
15 -16 8 -38 15 -50 15 -27 0 -48 25 -63 72 -7 21 -17 40 -22 43 -11 8 -42 65
-34 65 3 0 28 -17 55 -37z m-221 -35 c83 -51 141 -104 257 -234 68 -76 124
-142 124 -146 0 -26 -42 10 -195 165 -93 95 -185 182 -202 192 -18 11 -33 25
-33 32 0 18 7 16 49 -9z m-431 -184 c89 -43 131 -71 179 -117 82 -78 81 -95
-1 -23 -35 31 -67 56 -72 56 -5 0 -22 7 -37 15 -16 8 -47 20 -70 25 -59 16
-130 49 -144 68 -39 50 9 42 145 -24z m442 -150 c126 -74 231 -156 218 -169
-4 -4 -29 10 -55 32 -63 51 -102 73 -236 132 -157 69 -278 147 -312 200 -10
18 241 -110 385 -195z m58 120 c31 -25 76 -61 100 -81 64 -52 305 -374 290
-388 -2 -2 -43 46 -91 108 -47 62 -149 175 -226 252 -127 126 -152 155 -136
155 3 0 31 -21 63 -46z m-1541 -212 c27 -58 185 -223 298 -311 88 -69 107 -91
77 -91 -10 0 -23 5 -29 11 -6 6 -23 9 -39 7 l-29 -3 46 -37 c25 -21 56 -39 70
-41 17 -3 31 -17 46 -48 36 -73 32 -84 -44 -122 -83 -41 -189 -74 -268 -83
-33 -4 -74 -12 -91 -19 -81 -33 -482 -42 -655 -15 -116 18 -212 48 -231 72
-31 38 -65 109 -82 173 -10 33 -24 81 -32 106 -8 26 -14 58 -14 71 0 13 -9 58
-20 99 -25 96 -27 175 -2 188 9 5 96 12 192 16 96 3 213 11 260 16 47 5 168
16 270 24 102 8 197 18 210 24 39 15 44 13 67 -37z m294 -173 c70 -58 128
-152 76 -122 -40 22 -197 187 -197 207 0 9 44 -22 121 -85z m1203 31 c26 -22
58 -40 71 -40 33 0 93 -49 129 -105 10 -17 32 -46 48 -65 17 -19 57 -72 89
-118 60 -83 60 -83 69 -180 15 -154 13 -194 -7 -190 -15 3 -20 19 -26 83 -4
44 -6 99 -5 123 4 48 -3 51 -46 19 -17 -13 -40 -27 -51 -31 -16 -7 -17 -9 -5
-14 8 -3 18 -10 22 -16 11 -15 10 -194 -1 -200 -4 -3 -25 -7 -45 -10 -42 -5
-41 -6 -50 118 -4 55 -11 86 -24 100 -9 12 -25 36 -35 54 -16 28 -16 32 -3 32
9 0 16 -4 16 -10 0 -5 5 -10 10 -10 17 0 11 29 -9 39 -12 7 -20 26 -25 60 -5
38 -17 62 -49 102 -49 61 -50 61 -73 118 -13 30 -34 55 -66 79 -27 18 -48 36
-48 38 0 12 45 64 55 64 6 0 32 -18 59 -40z m-649 -327 c17 -9 65 -34 108 -55
44 -21 96 -53 118 -71 l38 -32 -42 -42 c-45 -46 -43 -57 10 -72 40 -11 53 1
53 51 0 50 18 49 52 -5 15 -23 50 -70 78 -105 27 -35 50 -68 50 -73 0 -9 -71
-45 -123 -63 -17 -5 -18 -18 -16 -151 2 -79 0 -147 -3 -151 -3 -3 -22 5 -42
18 -53 34 -76 88 -76 179 0 84 -23 145 -85 225 -19 26 -35 54 -35 63 0 16
-106 110 -159 142 -22 13 -26 23 -27 65 -1 27 3 62 9 77 8 24 14 27 36 22 14
-3 40 -13 56 -22z m269 -87 c33 -57 33 -79 1 -43 -14 15 -31 27 -38 27 -28 1
-39 17 -28 39 18 32 36 25 65 -23z m-386 -72 c13 -4 22 -14 22 -26 0 -17 -6
-19 -62 -16 -49 2 -63 7 -66 20 -4 23 54 35 106 22z m-180 -101 c-2 -9 -16
-21 -33 -26 -16 -5 -46 -27 -66 -48 -37 -41 -59 -50 -59 -24 0 8 4 15 9 15 5
0 31 22 58 50 49 51 98 69 91 33z m-1278 -77 c36 -8 86 -18 113 -21 55 -7 60
-22 17 -53 -16 -12 -35 -32 -41 -45 -12 -21 -11 -21 7 -7 10 8 30 25 44 38 14
13 34 27 45 32 27 10 123 -5 144 -23 9 -8 33 -20 53 -26 53 -17 64 -35 38 -59
-44 -41 -135 -53 -274 -39 -90 10 -100 -3 -30 -38 52 -27 261 -29 291 -3 10 8
29 19 41 23 20 6 23 4 20 -12 -2 -11 -13 -19 -31 -21 -15 -2 -32 -12 -37 -23
-6 -10 -9 -19 -7 -19 17 0 84 36 105 56 38 35 83 32 116 -7 37 -43 33 -72 -16
-126 -46 -50 -180 -156 -240 -190 -43 -25 -174 -64 -192 -57 -15 6 -79 129
-105 204 -31 89 -127 334 -144 366 -8 16 -18 40 -22 53 -8 27 -17 27 105 -3z
m1097 -10 c-3 -8 -15 -20 -26 -26 -19 -9 -21 -8 -21 14 0 27 29 51 44 36 5 -5
6 -15 3 -24z m-69 -8 c0 -7 4 -23 7 -35 6 -19 4 -23 -15 -23 -25 0 -49 25 -50
53 0 12 8 17 28 17 16 0 29 -6 30 -12z m-75 -36 c28 -64 17 -98 -17 -51 -8 11
-24 27 -35 35 -19 14 -21 13 -21 -6 0 -30 61 -89 100 -96 22 -5 41 -20 63 -50
18 -24 38 -43 45 -44 19 0 15 8 -23 45 -19 19 -32 35 -29 35 4 0 -1 10 -9 23
-10 16 -12 28 -5 40 10 19 43 23 53 7 10 -16 25 -12 19 5 -7 18 2 19 42 5 17
-6 46 -34 72 -69 43 -59 82 -100 82 -86 0 4 -12 21 -26 39 -14 17 -39 49 -56
71 -29 39 -29 40 -9 43 27 4 99 -52 118 -92 11 -24 13 -25 8 -6 -19 72 -19 70
8 70 18 0 31 -10 45 -34 24 -41 33 -92 14 -88 -6 1 -12 -2 -12 -8 0 -5 23 -16
52 -25 47 -14 54 -13 76 1 22 15 23 19 16 77 -13 98 -10 118 21 144 35 30 49
25 53 -18 2 -19 9 -41 16 -49 7 -8 22 -33 33 -56 18 -35 20 -53 16 -128 -3
-47 -10 -89 -15 -92 -6 -4 -36 21 -68 55 -32 34 -61 58 -64 52 -4 -5 -2 -12 4
-16 6 -3 17 -19 25 -35 15 -28 14 -32 -19 -82 -19 -29 -45 -64 -60 -77 l-25
-24 25 -20 26 -20 45 22 44 21 42 -33 c23 -18 62 -46 87 -61 25 -16 56 -38 69
-50 23 -20 24 -20 16 -1 -4 11 -13 46 -20 78 -7 33 -18 64 -24 70 -20 20 -12
42 14 43 14 1 44 11 67 23 44 22 58 17 58 -22 0 -18 21 -93 41 -152 6 -16 20
-66 30 -109 11 -44 29 -94 39 -112 24 -37 25 -54 6 -54 -16 0 -26 21 -26 56 0
19 -5 24 -24 24 -29 0 -89 -24 -109 -45 -14 -13 -16 -13 -22 5 -4 11 -18 27
-33 34 -15 8 -57 36 -93 63 -89 67 -96 71 -76 42 9 -13 17 -35 17 -49 0 -14 7
-38 15 -54 8 -15 15 -33 15 -40 1 -6 9 -29 20 -51 11 -22 19 -55 20 -73 0 -29
-3 -33 -22 -30 -21 3 -45 53 -28 60 4 2 10 12 14 24 6 19 2 21 -45 23 -36 1
-57 -4 -70 -15 -16 -14 -18 -14 -27 3 -5 10 -21 59 -35 108 -61 216 -92 259
-240 336 -93 48 -202 149 -231 214 -45 103 -46 103 -45 75 0 -14 6 -36 14 -50
25 -44 21 -47 -77 -46 -51 1 -121 -3 -155 -7 l-63 -8 -6 38 c-7 44 -18 61 -57
86 -26 17 -28 23 -22 55 6 31 5 34 -8 24 -11 -9 -22 -10 -41 -2 -41 15 -55 11
-22 -6 21 -12 25 -18 16 -24 -14 -8 -37 -3 -55 13 -5 5 -28 18 -49 30 -22 12
-41 27 -43 32 -2 6 52 11 146 12 96 1 170 7 209 17 72 19 99 20 105 4 3 -9 7
-7 12 5 13 32 50 21 68 -21z m534 -119 c13 -66 -3 -71 -35 -10 -25 47 -28 73
-9 80 20 7 34 -15 44 -70z m1413 16 c0 -11 -47 -179 -76 -271 -13 -41 -13 -49
2 -75 25 -43 13 -83 -25 -83 -32 0 -61 -22 -61 -46 0 -36 -19 -8 -36 52 -19
65 -21 69 -136 173 -65 58 -118 111 -118 116 0 6 31 19 69 28 80 21 86 19 150
-47 43 -44 71 -53 51 -16 -7 13 -6 21 5 30 8 6 15 33 17 58 3 46 3 47 45 54
23 4 54 14 70 22 34 18 43 19 43 5z m-500 -159 c0 -12 7 -31 16 -44 15 -23 12
-28 -65 -145 -47 -73 -74 -121 -65 -121 8 0 48 12 89 26 83 29 105 27 105 -10
0 -14 5 -28 10 -31 22 -13 8 -31 -32 -42 -101 -27 -155 -44 -185 -58 -17 -8
-38 -15 -47 -15 -9 0 -44 -9 -77 -20 -74 -25 -96 -20 -105 24 -5 30 3 47 75
155 45 66 81 122 81 125 0 6 -35 -3 -123 -31 -43 -14 -80 -23 -82 -22 -2 2 -6
25 -10 50 l-7 46 84 26 c45 14 133 40 193 57 61 18 114 36 120 41 15 15 25 10
25 -11z m-1050 -319 c0 -10 3 -32 6 -48 l6 -30 -119 -37 c-65 -21 -124 -39
-130 -41 -7 -3 -10 -11 -6 -21 7 -18 8 -18 133 17 106 28 120 24 120 -36 0
-40 -2 -45 -22 -45 -31 0 -188 -50 -188 -60 0 -4 6 -12 13 -18 13 -11 21 -9
168 39 96 32 100 30 132 -64 34 -102 36 -112 17 -112 -9 0 -16 11 -18 25 -6
51 -24 81 -46 78 -18 -3 -21 -10 -20 -50 0 -30 7 -54 17 -66 21 -23 22 -52 2
-52 -17 0 -17 1 -35 82 -15 64 -4 62 -115 32 -27 -8 -80 -22 -117 -31 -62 -15
-68 -19 -68 -43 0 -15 11 -60 25 -100 14 -40 25 -79 25 -87 0 -17 -29 -17 -34
0 -2 6 -13 50 -24 97 -12 47 -33 126 -47 175 -15 50 -35 119 -45 155 -9 36
-24 79 -31 97 -7 18 -11 34 -9 37 5 4 388 124 403 125 4 1 7 -7 7 -18z m1405
-33 c29 -13 30 -41 1 -46 -23 -5 -47 23 -39 44 6 17 6 17 38 2z m-1941 -142
c48 -20 66 -51 66 -113 0 -45 -4 -55 -25 -69 -14 -9 -25 -20 -25 -25 0 -4 21
-24 48 -43 26 -20 53 -40 60 -46 7 -6 12 -7 12 -1 0 5 9 7 20 4 11 -3 20 -12
20 -21 0 -9 11 -32 24 -51 29 -43 45 -106 25 -99 -16 5 -23 20 -43 91 -13 44
-21 57 -37 57 -10 0 -19 -7 -19 -15 0 -13 -5 -12 -27 5 -24 17 -33 18 -66 9
-21 -5 -40 -16 -43 -23 -6 -16 19 -102 47 -164 20 -44 18 -62 -6 -62 -15 0
-25 22 -25 53 0 12 -6 39 -14 62 -8 22 -17 52 -20 66 -3 15 -27 49 -54 78 -48
50 -48 51 -87 40 -22 -6 -43 -14 -47 -18 -8 -7 0 -38 30 -116 11 -27 23 -59
27 -70 5 -12 -4 -6 -23 15 -44 50 -58 31 -30 -42 21 -60 19 -92 -6 -82 -10 4
-18 26 -22 65 -6 58 -15 68 -42 50 -10 -6 -11 -13 -1 -34 16 -35 5 -64 -17
-46 -11 9 -13 22 -9 51 5 28 3 44 -8 56 -17 20 -37 76 -37 106 -1 12 -9 39
-20 61 -11 22 -19 54 -20 71 0 17 -9 43 -20 57 -28 35 -26 42 23 60 94 35 295
91 345 96 7 0 28 -5 46 -13z m1044 -123 c17 -32 23 -91 11 -98 -17 -11 -26 6
-33 63 -7 53 4 70 22 35z m-1542 -28 c0 -19 8 -43 17 -53 21 -23 22 -33 2 -26
-12 5 -15 -4 -15 -48 0 -32 6 -62 15 -74 8 -10 14 -21 15 -24 0 -3 -24 -5 -53
-5 -58 -1 -177 -42 -177 -62 0 -7 20 -55 45 -107 52 -110 55 -121 35 -121 -10
0 -17 13 -20 39 -6 44 -32 68 -52 48 -10 -10 -9 -21 1 -55 22 -72 25 -110 10
-105 -8 3 -20 36 -28 82 l-15 77 -30 -3 c-31 -3 -31 -4 -28 -53 2 -37 0 -46
-7 -35 -6 8 -11 27 -11 42 0 15 -6 42 -14 60 -8 18 -27 76 -41 128 -15 52 -37
123 -50 157 l-22 61 45 7 c25 4 115 29 201 55 86 27 161 49 166 49 6 1 10 -15
11 -34z m1274 -92 c0 -14 -39 -18 -41 -5 -5 29 -6 58 -2 65 6 10 43 -42 43
-60z m-620 -166 c0 -38 -15 -25 -24 22 -5 29 -4 32 9 21 8 -7 15 -26 15 -43z"/>
<path d="M2458 5133 c7 -3 16 -2 19 1 4 3 -2 6 -13 5 -11 0 -14 -3 -6 -6z"/>
<path d="M2810 4210 c-99 -23 -206 -74 -291 -138 -31 -23 -59 -42 -63 -42 -8
0 41 68 66 91 22 20 23 29 4 29 -38 0 -156 -139 -171 -202 -5 -19 -14 -28 -27
-28 -15 0 -18 5 -14 20 3 11 9 29 12 40 10 38 -12 20 -35 -27 -19 -38 -25 -70
-28 -148 l-5 -100 58 57 c66 62 152 113 214 123 51 9 52 23 0 27 -22 2 -41 7
-43 13 -2 11 88 45 120 45 26 0 53 10 53 19 0 3 -16 6 -37 6 -53 0 -51 19 4
42 34 15 71 21 128 21 97 1 93 0 75 12 -8 5 -50 7 -95 4 l-80 -5 33 29 c29 26
128 80 175 95 9 4 17 11 17 17 0 11 -19 11 -70 0z"/>
<path d="M3451 3125 c55 -99 191 -268 306 -383 40 -40 73 -77 73 -83 0 -5 5
-9 10 -9 6 0 10 2 10 4 0 2 -57 71 -126 152 -69 82 -150 181 -179 219 -29 39
-68 86 -85 105 l-32 35 23 -40z"/>
<path d="M2981 2983 c144 -166 222 -253 226 -253 5 0 -6 18 -23 40 -7 8 -28
33 -46 56 -76 95 -162 189 -176 193 -9 2 0 -15 19 -36z"/>
<path d="M3237 2701 c23 -22 39 -28 28 -11 -3 5 -16 15 -28 21 l-22 11 22 -21z"/>
<path d="M3309 2647 c14 -18 51 -42 51 -33 0 3 -15 15 -32 27 -24 17 -29 18
-19 6z"/>
<path d="M3886 2527 c8 -27 25 -49 32 -42 3 2 -1 12 -9 21 -12 16 -12 17 6 12
11 -3 29 -9 40 -13 11 -4 4 3 -15 16 -48 31 -62 33 -54 6z"/>
<path d="M3974 2489 c-4 -8 -3 -10 4 -5 15 9 15 -6 1 -38 -8 -16 -17 -22 -28
-18 -14 5 -14 4 -1 -13 28 -35 72 -74 91 -80 27 -9 99 31 99 56 0 23 -24 84
-36 92 -5 2 -34 8 -66 11 -40 5 -58 4 -64 -5z"/>
<path d="M3990 2316 c0 -2 7 -9 15 -16 9 -7 15 -8 15 -2 0 5 -7 12 -15 16 -8
3 -15 4 -15 2z"/>
<path d="M2493 2703 c-56 -15 -104 -32 -107 -39 -3 -7 3 -23 12 -34 18 -23 50
-28 90 -15 18 6 22 4 22 -14 0 -16 -11 -27 -42 -40 l-43 -19 43 -17 c23 -9 42
-19 42 -21 0 -10 -44 -91 -64 -119 -19 -26 -22 -43 -21 -126 0 -81 3 -100 19
-118 23 -26 37 -26 65 -3 33 27 37 73 9 108 -13 16 -30 47 -36 69 -12 38 -11
41 14 60 14 11 41 35 58 53 36 35 51 40 59 17 4 -8 23 -21 44 -30 42 -18 183
-122 183 -136 0 -14 -32 -26 -87 -32 -43 -5 -53 -3 -53 9 0 8 7 17 15 20 29
12 14 40 -42 82 -66 48 -88 54 -77 20 4 -13 13 -32 20 -43 38 -54 -6 -60 -67
-9 -24 20 -45 31 -47 26 -6 -18 63 -116 107 -154 47 -40 75 -48 171 -48 70 0
116 14 160 50 l25 20 -40 35 c-22 19 -48 34 -57 35 -17 0 -22 11 -19 38 5 33
-29 61 -79 68 -28 4 -50 10 -50 13 0 4 11 17 25 29 24 21 25 28 25 120 0 87
-3 103 -23 133 -22 32 -26 34 -87 36 -44 2 -99 -6 -167 -24z m187 -90 c11 -25
18 -54 15 -64 -5 -16 -8 -16 -45 2 -44 22 -52 48 -24 87 22 32 30 28 54 -25z
m-12 -130 c3 -19 -1 -23 -26 -23 -35 0 -41 5 -35 31 8 29 57 22 61 -8z"/>
<path d="M1836 2674 c-12 -32 -6 -84 10 -91 42 -16 68 39 40 83 -19 27 -41 31
-50 8z m39 -14 c3 -5 -3 -10 -14 -10 -12 0 -21 5 -21 10 0 6 6 10 14 10 8 0
18 -4 21 -10z"/>
<path d="M1866 2418 c-8 -32 -7 -68 2 -68 48 1 72 34 50 69 -17 28 -44 27 -52
-1z"/>
<path d="M1980 2194 c0 -8 9 -14 20 -14 11 0 20 4 20 9 0 5 -9 11 -20 14 -13
3 -20 0 -20 -9z"/>
<path d="M1964 2169 c-8 -13 4 -59 15 -59 16 0 61 42 55 51 -3 6 -8 8 -11 5
-3 -2 -16 -1 -29 4 -15 6 -26 6 -30 -1z"/>
<path d="M4280 2551 c0 -6 11 -22 25 -37 14 -15 28 -37 31 -48 3 -12 30 -38
60 -59 89 -63 134 -35 76 47 -16 22 -33 51 -37 64 -10 34 -29 21 -38 -26 -11
-57 -30 -53 -62 13 -15 30 -34 55 -41 55 -8 0 -14 -4 -14 -9z"/>
<path d="M3560 2222 c0 -13 23 -32 38 -32 7 0 10 4 7 10 -9 14 -45 32 -45 22z"/>
<path d="M3650 2200 c0 -5 -7 -10 -16 -10 -8 0 -12 -5 -9 -10 4 -7 13 -7 26 0
20 11 26 30 9 30 -5 0 -10 -4 -10 -10z"/>
<path d="M3909 1904 c-9 -23 -13 -47 -9 -54 12 -20 32 25 28 63 l-3 32 -16
-41z"/>
<path d="M2092 1884 c11 -11 23 -14 35 -9 17 7 17 8 -2 15 -11 5 -27 9 -35 9
-12 1 -11 -2 2 -15z"/>
<path d="M2340 1551 c0 -5 9 -11 20 -14 24 -6 27 8 4 17 -21 8 -24 8 -24 -3z"/>
<path d="M2360 1499 c-7 -11 -18 -18 -25 -15 -8 3 -17 1 -20 -5 -11 -17 24
-21 40 -5 9 9 20 16 24 16 4 0 8 7 8 15 0 21 -14 18 -27 -6z"/>
<path d="M3181 1835 c12 -27 45 -75 52 -75 11 0 -19 54 -39 71 -9 8 -15 10
-13 4z"/>
<path d="M3390 1703 c8 -3 23 -10 32 -15 14 -6 16 -5 12 7 -4 8 -18 15 -33 14
-15 0 -20 -3 -11 -6z"/>
<path d="M3315 1630 c-14 -22 -30 -40 -36 -40 -5 0 -8 -4 -5 -9 9 -14 116 -3
143 15 33 21 26 33 -30 55 l-47 19 -25 -40z"/>
<path d="M2695 1031 c-61 -18 -77 -38 -56 -69 7 -12 13 -11 37 1 16 8 45 18
64 22 66 13 71 16 68 38 -4 29 -36 31 -113 8z"/>
<path d="M2310 913 c-25 -8 -70 -20 -100 -26 -45 -10 -56 -16 -58 -34 -4 -27
11 -29 63 -7 20 8 62 20 93 25 56 11 72 21 72 47 0 15 -13 14 -70 -5z"/>
</g>
</svg>
